<svg width="30" height="30" viewBox="0 0 30 30" fill="none" xmlns="http://www.w3.org/2000/svg">
<path d="M20.3125 0.125C18.8193 0.124658 17.3467 0.474101 16.0128 1.14533C14.6789 1.81656 13.5208 2.7909 12.6313 3.99029C11.7418 5.18967 11.1456 6.58074 10.8905 8.05203C10.6354 9.52332 10.7284 11.0339 11.1622 12.4628L0.125 23.5V29.875H6.5L17.5373 18.8377C18.8525 19.237 20.2384 19.348 21.6005 19.1632C22.9625 18.9784 24.2687 18.5021 25.43 17.7668C26.5914 17.0315 27.5805 16.0545 28.3301 14.9024C29.0797 13.7502 29.5721 12.45 29.7738 11.0904C29.9754 9.73069 29.8816 8.34354 29.4986 7.02343C29.1157 5.70332 28.4527 4.48129 27.5547 3.4406C26.6568 2.39991 25.545 1.56503 24.2953 0.992861C23.0455 0.420693 21.687 0.124681 20.3125 0.125ZM20.3125 17.125C19.581 17.1246 18.8535 17.0165 18.1535 16.8041L16.9348 16.4344L16.0349 17.3343L12.6551 20.7141L11.1899 19.25L9.6875 20.7524L11.1527 22.2176L9.46756 23.9027L8.00237 22.4375L6.5 23.9399L7.96519 25.4051L5.62025 27.75H2.25V24.3797L12.6646 13.9651L13.5656 13.0652L13.1959 11.8465C12.7417 10.3494 12.7712 8.74728 13.2802 7.26794C13.7891 5.7886 14.7516 4.50742 16.0307 3.60663C17.3097 2.70584 18.8403 2.23132 20.4046 2.25056C21.9689 2.26981 23.4873 2.78184 24.7439 3.71383C26.0004 4.64581 26.9311 5.95029 27.4034 7.4417C27.8758 8.93311 27.8659 10.5355 27.3751 12.0209C26.8843 13.5064 25.9375 14.7992 24.6696 15.7156C23.4016 16.6319 21.8769 17.1251 20.3125 17.125Z" fill="white"/>
</svg>
